<svg width="24" height="24" viewBox="0 0 24 24" fill="none" xmlns="http://www.w3.org/2000/svg">
<g clip-path="url(#clip0_37_11375)">
<path d="M6.94 14.036C6.707 14.66 6.51 15.236 6.334 15.819C7.294 15.122 8.435 14.68 9.752 14.515C12.265 14.201 14.628 11.957 15 11C15.372 10.043 15.692 9.61597 16 9C16.308 8.38403 16.349 8.0828 16.585 7.5C16.7437 7.10809 16.5 7.5 17 6.5C17.5 5.5 17.5 5.362 18.013 4.218C12.42 5.085 8.996 8.51 6.94 14.036ZM18.5 9.5C18.2774 10.1679 18.3523 10.2953 17.5 12C16.6477 13.7047 14 16 10 16.5C7.331 16.834 5.664 18.667 4.998 22H3C4 16 6 2 21 2C20 4.997 20 5 19.5 6.5C19 8 19 8 18.5 9.5Z" fill="white"/>
</g>
<defs>
<clipPath id="clip0_37_11375">
<rect width="24" height="24" fill="white"/>
</clipPath>
</defs>
</svg>
