<svg width="51" height="50" viewBox="0 0 51 50" fill="none" xmlns="http://www.w3.org/2000/svg">
<path d="M11.8281 44.1406V13.6719C11.8281 11.5146 13.5771 9.76562 15.7344 9.76562H9.875C7.71768 9.76562 5.96875 11.5146 5.96875 13.6719V44.1406C5.96875 46.298 7.71768 48.0469 9.875 48.0469H15.7344C13.5771 48.0469 11.8281 46.298 11.8281 44.1406Z" fill="#BDE6F2"/>
<path d="M13.7812 24.6094C14.8599 24.6094 15.7344 23.7349 15.7344 22.6562C15.7344 21.5776 14.8599 20.7031 13.7812 20.7031C12.7026 20.7031 11.8281 21.5776 11.8281 22.6562C11.8281 23.7349 12.7026 24.6094 13.7812 24.6094Z" fill="#082957"/>
<path d="M13.7812 32.4219C14.8599 32.4219 15.7344 31.5474 15.7344 30.4688C15.7344 29.3901 14.8599 28.5156 13.7812 28.5156C12.7026 28.5156 11.8281 29.3901 11.8281 30.4688C11.8281 31.5474 12.7026 32.4219 13.7812 32.4219Z" fill="#082957"/>
<path d="M13.7812 40.2344C14.8599 40.2344 15.7344 39.3599 15.7344 38.2812C15.7344 37.2026 14.8599 36.3281 13.7812 36.3281C12.7026 36.3281 11.8281 37.2026 11.8281 38.2812C11.8281 39.3599 12.7026 40.2344 13.7812 40.2344Z" fill="#082957"/>
<path d="M41.125 7.8125C40.0463 7.8125 39.1719 8.68691 39.1719 9.76562C39.1719 10.8443 40.0463 11.7188 41.125 11.7188C42.202 11.7188 43.0781 12.5949 43.0781 13.6719V44.1406C43.0781 45.2176 42.202 46.0938 41.125 46.0938H9.875C8.79805 46.0938 7.92188 45.2176 7.92188 44.1406V13.6719C7.92188 12.5949 8.79805 11.7188 9.875 11.7188H15.7344V13.6719C15.7344 14.7506 16.6088 15.625 17.6875 15.625H33.3125C34.3912 15.625 35.2656 14.7506 35.2656 13.6719V9.76562C35.2656 6.53477 32.6371 3.90625 29.4062 3.90625H27.4531V1.95312C27.4531 0.874414 26.5787 0 25.5 0C24.4213 0 23.5469 0.874414 23.5469 1.95312V3.90625H21.5938C19.0476 3.90625 16.8767 5.53926 16.0703 7.8125H9.875C6.64414 7.8125 4.01562 10.441 4.01562 13.6719V44.1406C4.01562 47.3715 6.64414 50 9.875 50H41.125C44.3559 50 46.9844 47.3715 46.9844 44.1406V13.6719C46.9844 10.441 44.3559 7.8125 41.125 7.8125ZM21.5938 7.8125H29.4062C30.4832 7.8125 31.3594 8.68867 31.3594 9.76562V11.7188H19.6406V9.76562C19.6406 8.68867 20.5168 7.8125 21.5938 7.8125Z" fill="#1DC2BD"/>
<path d="M19.6406 22.6562C19.6406 23.735 20.515 24.6094 21.5938 24.6094H37.2188C38.2975 24.6094 39.1719 23.735 39.1719 22.6562C39.1719 21.5775 38.2975 20.7031 37.2188 20.7031H21.5938C20.515 20.7031 19.6406 21.5775 19.6406 22.6562Z" fill="#1DC2BD"/>
<path d="M37.2188 36.3281H21.5938C20.515 36.3281 19.6406 37.2025 19.6406 38.2812C19.6406 39.36 20.515 40.2344 21.5938 40.2344H37.2188C38.2975 40.2344 39.1719 39.36 39.1719 38.2812C39.1719 37.2025 38.2975 36.3281 37.2188 36.3281Z" fill="#1DC2BD"/>
<path d="M37.2188 28.5156H21.5938C20.515 28.5156 19.6406 29.39 19.6406 30.4688C19.6406 31.5475 20.515 32.4219 21.5938 32.4219H37.2188C38.2975 32.4219 39.1719 31.5475 39.1719 30.4688C39.1719 29.39 38.2975 28.5156 37.2188 28.5156Z" fill="#1DC2BD"/>
</svg>
