<svg width="51" height="50" viewBox="0 0 51 50" fill="none" xmlns="http://www.w3.org/2000/svg">
<g clip-path="url(#clip0_37_11181)">
<path d="M8.81251 21.8281V14.0156C8.81251 11.8583 10.5614 10.1094 12.7188 10.1094H6.85938C4.70205 10.1094 2.95312 11.8583 2.95312 14.0156V21.8281C2.95312 23.9855 4.70205 25.7344 6.85938 25.7344H12.7188C10.5614 25.7344 8.81251 23.9855 8.81251 21.8281Z" fill="#BDE6F2"/>
<path d="M43.7596 7.58421C42.9969 6.82142 42.9969 5.5848 43.7596 4.8221L47.6658 0.915845C48.4286 0.153052 49.6653 0.153052 50.428 0.915845C51.1907 1.67864 51.1907 2.91526 50.428 3.67796L46.5218 7.58421C45.7591 8.34691 44.5223 8.34691 43.7596 7.58421Z" fill="#082957"/>
<path d="M47.6658 34.928L43.7596 31.0217C42.9969 30.2589 42.9969 29.0223 43.7596 28.2596C44.5223 27.4968 45.7591 27.4968 46.5218 28.2596L50.428 32.1658C51.1907 32.9286 51.1907 34.1653 50.428 34.928C49.6653 35.6907 48.4286 35.6907 47.6658 34.928Z" fill="#082957"/>
<path d="M41.2344 12.0626H39.2813V6.20325C39.2813 2.97239 36.6528 0.343872 33.4219 0.343872C30.1912 0.343872 27.5628 2.9722 27.5625 6.20306V6.20325C27.5625 7.28021 26.6864 8.15638 25.6094 8.15638H6.85938C3.62852 8.15638 1 10.7849 1 14.0158V21.8283C1 24.3745 2.63301 26.5454 4.90625 27.3517V41.3595C4.90625 44.5904 7.53477 47.2189 10.7656 47.2189C13.9965 47.2189 16.625 44.5904 16.625 41.3595V35.5002H18.5781C19.6569 35.5002 20.5313 34.6257 20.5313 33.547C20.5313 32.4683 19.6569 31.5939 18.5781 31.5939H14.6719C13.5932 31.5939 12.7188 32.4683 12.7188 33.547V41.3595C12.7188 42.4365 11.8426 43.3127 10.7656 43.3127C9.68868 43.3127 8.81251 42.4365 8.81251 41.3595V27.6877H25.6094C26.6864 27.6877 27.5625 28.5638 27.5625 29.6408C27.5625 32.8716 30.191 35.5002 33.4219 35.5002C36.6528 35.5002 39.2813 32.8716 39.2813 29.6408V23.7814H41.2344C44.4653 23.7814 47.0938 21.1529 47.0938 17.922C47.0938 14.6912 44.4653 12.0626 41.2344 12.0626ZM35.375 29.6408C35.375 30.7177 34.4989 31.5939 33.4219 31.5939C32.345 31.5939 31.4688 30.7177 31.4688 29.6408C31.4688 26.4099 28.8403 23.7814 25.6094 23.7814H6.85938C5.78243 23.7814 4.90625 22.9052 4.90625 21.8283V14.0158C4.90625 12.9388 5.78243 12.0626 6.85938 12.0626H25.6094C28.8403 12.0626 31.4688 9.43412 31.4688 6.20325C31.4688 5.1263 32.345 4.25013 33.4219 4.25013C34.4989 4.25013 35.375 5.1263 35.375 6.20325V29.6408ZM41.2344 19.8751H39.2813V15.9689H41.2344C42.3114 15.9689 43.1875 16.8451 43.1875 17.922C43.1875 18.999 42.3114 19.8751 41.2344 19.8751Z" fill="#1DC2BD"/>
</g>
<defs>
<clipPath id="clip0_37_11181">
<rect width="50" height="50" fill="white" transform="translate(0.5)"/>
</clipPath>
</defs>
</svg>
